<?xml version="1.0" encoding="UTF-8" standalone="no"?>
<!-- Created with Inkscape (http://www.inkscape.org/) -->

<svg
   xmlns:dc="http://purl.org/dc/elements/1.1/"
   xmlns:cc="http://creativecommons.org/ns#"
   xmlns:rdf="http://www.w3.org/1999/02/22-rdf-syntax-ns#"
   xmlns:svg="http://www.w3.org/2000/svg"
   xmlns="http://www.w3.org/2000/svg"
   xmlns:sodipodi="http://sodipodi.sourceforge.net/DTD/sodipodi-0.dtd"
   xmlns:inkscape="http://www.inkscape.org/namespaces/inkscape"
   id="svg2"
   version="1.1"
   inkscape:version="0.91 r13725"
   xml:space="preserve"
   width="360.11798"
   height="227.78328"
   viewBox="0 0 360.11798 227.78328"
   sodipodi:docname="melodient_logo_blue.pdf"><metadata
     id="metadata8"><rdf:RDF><cc:Work
         rdf:about=""><dc:format>image/svg+xml</dc:format><dc:type
           rdf:resource="http://purl.org/dc/dcmitype/StillImage" /><dc:title></dc:title></cc:Work></rdf:RDF></metadata><defs
     id="defs6" /><sodipodi:namedview
     pagecolor="#ffffff"
     bordercolor="#666666"
     borderopacity="1"
     objecttolerance="10"
     gridtolerance="10"
     guidetolerance="10"
     inkscape:pageopacity="0"
     inkscape:pageshadow="2"
     inkscape:window-width="725"
     inkscape:window-height="480"
     id="namedview4"
     showgrid="false"
     inkscape:zoom="1.0360725"
     inkscape:cx="62.789209"
     inkscape:cy="113.89164"
     inkscape:window-x="0"
     inkscape:window-y="0"
     inkscape:window-maximized="0"
     inkscape:current-layer="g10" /><g
     id="g10"
     inkscape:groupmode="layer"
     inkscape:label="melodient_logo_blue"
     transform="matrix(1.25,0,0,-1.25,0,227.78328)"><g
       id="g12"><path
         d="M 134.496,182.227 C 58.414,182.227 -3.918,139.77 0.191,92.457 6.359,28.77 77.562,0.684 154.289,0 c 76.043,0 137.723,42.469 133.609,89.074 -5.48,63.711 -77.359,92.469 -153.402,93.153 z m -9.203,-16.496 c 27.133,-0.309 57.098,-13.79 82.301,-46.36 C 234.457,84.738 230.492,39.613 197.438,23.875 163.715,8.516 117.617,15.117 80.672,62.332 c -27.246,35.176 -23.004,80.445 10.07,96.195 10.446,4.754 22.219,7.344 34.551,7.204 z"
         style="fill:#cccccc;fill-opacity:1;fill-rule:nonzero;stroke:none"
         id="path14"
         inkscape:connector-curvature="0" /><path
         d="m 55.969,80.379 0,17.172 c 0,6.375 -2.735,8.922 -9.047,8.922 -4.406,0 -7.813,-2.047 -10.047,-6.141 -0.984,5.953 -6.25,6.141 -8.859,6.141 -1.172,0 -3.782,0 -6.563,-2.047 -1.922,-1.422 -3.172,-3.406 -3.594,-4.328 l -0.062,0 0,3.093 c 0,1.985 -0.438,2.969 -2.985,2.969 l -2.109,0 c -2.219,0 -2.969,-0.672 -2.969,-2.969 l 0,-22.812 c 0,-2.219 0.688,-2.969 2.969,-2.969 l 2.485,0 c 2.359,0 2.968,0.813 2.968,2.969 l 0,13.703 c 0,5.578 3.782,7.938 6.828,7.938 2.969,0 3.657,-1.313 3.657,-4.594 l 0,-17.047 c 0,-2.219 0.671,-2.969 2.968,-2.969 l 2.485,0 c 2.344,0 2.968,0.813 2.968,2.969 l 0,13.703 c 0,5.578 3.782,7.938 6.813,7.938 2.984,0 3.656,-1.313 3.656,-4.594 l 0,-17.047 c 0,-2.219 0.688,-2.969 2.985,-2.969 l 2.468,0 c 2.36,0 2.985,0.813 2.985,2.969 z M 89.441,93.52 c 0,8 -3.718,13.328 -12.953,13.328 -9.922,0 -14.812,-5.578 -14.812,-15 0,-10.157 5.89,-15.125 15.609,-15.125 2.36,0 5.891,0.312 9.985,2.359 1.359,0.688 1.796,0.875 1.796,1.609 0,0.438 -0.187,2.235 -0.25,2.735 -0.25,1.922 -0.312,1.984 -0.859,1.984 -0.25,0 -0.375,0 -1.062,-0.625 -3.657,-3.156 -7.375,-3.594 -9.36,-3.594 -7,0 -7.75,5.516 -7.922,9.485 l 16.844,0 c 1.438,0 2.984,0.062 2.984,2.844 z m -6.89,0.437 -12.875,0 c 0.172,3.781 1.422,8.422 6.812,8.422 4.953,0 5.891,-3.594 6.063,-8.422 z m 20.929,-13.578 0,37.062 c 0,1.985 -0.421,2.969 -2.968,2.969 l -2.297,0 c -2.219,0 -2.969,-0.672 -2.969,-2.969 l 0,-37.062 c 0,-2.219 0.688,-2.969 2.969,-2.969 l 2.297,0 c 2.359,0 2.968,0.813 2.968,2.969 z m 35.934,10.969 c 0,10.172 -4.953,15.5 -15.047,15.5 -10.359,0 -15.125,-5.516 -15.125,-15.5 0,-10.094 5.328,-14.625 15.063,-14.625 9.718,0 15.109,4.468 15.109,14.625 z m -8.422,0.75 c 0,-4.891 0,-10.532 -6.625,-10.532 -6.703,0 -6.703,5.579 -6.703,10.532 0,4.765 0,10.281 6.641,10.281 6.687,0 6.687,-5.453 6.687,-10.281 z m 41.383,-11.719 0,37.062 c 0,1.985 -0.437,2.969 -2.969,2.969 l -2.297,0 c -2.359,0 -2.968,-0.797 -2.968,-2.969 l 0,-14.062 c -2.797,2.656 -5.891,3.094 -7.813,3.094 -12.578,0 -12.578,-11.891 -12.578,-14.938 0,-2.844 0,-14.812 12.266,-14.812 2.609,0 5.265,0.75 7.937,3.593 0,-2.281 0.859,-2.906 2.969,-2.906 l 2.484,0 c 2.344,0 2.969,0.813 2.969,2.969 z m -8.422,4.781 c 0,-1.062 0,-1.609 -1.797,-2.859 -1.562,-0.985 -2.984,-1.11 -3.718,-1.11 -6.266,0 -6.266,5.704 -6.266,10.344 0,4.656 0,10.485 6.937,10.485 1.797,0 3.469,-0.625 4.844,-1.922 l 0,-14.938 z m 24.254,-4.781 0,22.437 c 0,1.985 -0.422,2.969 -2.969,2.969 l -2.297,0 c -2.218,0 -2.968,-0.672 -2.968,-2.969 l 0,-22.437 c 0,-2.219 0.687,-2.969 2.968,-2.969 l 2.297,0 c 2.36,0 2.969,0.813 2.969,2.969 z m 0.438,34.578 0,1.188 c 0,1.984 -0.438,2.968 -2.969,2.968 l -3.156,0 c -2.36,0 -2.985,-0.797 -2.985,-2.968 l 0,-1.188 c 0,-1.797 0.313,-2.969 2.985,-2.969 l 3.156,0 c 2.594,0 2.969,1.11 2.969,2.969 z M 221.734,93.52 c 0,8 -3.718,13.328 -12.953,13.328 -9.922,0 -14.812,-5.578 -14.812,-15 0,-10.157 5.89,-15.125 15.609,-15.125 2.36,0 5.891,0.312 9.984,2.359 1.36,0.688 1.797,0.875 1.797,1.609 0,0.438 -0.187,2.235 -0.25,2.735 -0.25,1.922 -0.312,1.984 -0.859,1.984 -0.25,0 -0.375,0 -1.062,-0.625 -3.657,-3.156 -7.376,-3.594 -9.36,-3.594 -7,0 -7.75,5.516 -7.922,9.485 l 16.844,0 c 1.438,0 2.984,0.062 2.984,2.844 z m -6.89,0.437 -12.875,0 c 0.172,3.781 1.422,8.422 6.812,8.422 4.953,0 5.891,-3.594 6.063,-8.422 z m 39.898,-13.578 0,17.172 c 0,6.375 -2.734,8.922 -9.047,8.922 -6.5,0 -9.297,-4.703 -10.093,-6.375 l -0.063,0 0,3.093 c 0,1.985 -0.437,2.969 -2.984,2.969 l -2.11,0 c -2.218,0 -2.968,-0.672 -2.968,-2.969 l 0,-22.812 c 0,-2.219 0.687,-2.969 2.968,-2.969 l 2.485,0 c 2.359,0 2.968,0.813 2.968,2.969 l 0,13.703 c 0,5.391 3.594,7.938 6.829,7.938 2.968,0 3.593,-1.438 3.593,-4.594 l 0,-17.047 c 0,-1.984 0.422,-2.969 2.969,-2.969 l 2.484,0 c 2.344,0 2.969,0.813 2.969,2.969 z m 26.863,-0.063 c 0,0.188 -0.125,0.625 -0.484,1.922 -0.312,1.25 -0.437,1.61 -1,1.61 -0.312,0 -0.375,-0.063 -0.734,-0.422 -0.688,-0.5 -2.36,-1.86 -4.969,-1.86 -1.484,0 -2.406,1.047 -2.406,5.141 l 0,14.625 5.515,0 c 0.735,0 2.969,0 2.969,2.234 0,2.219 -2.234,2.219 -2.969,2.219 l -5.515,0 0,5.156 c 0,1.985 -0.438,2.969 -2.985,2.969 l -1.922,0 c -2.234,0 -2.968,-0.687 -2.968,-2.969 l 0,-5.156 -1.422,0 c -0.688,0 -2.985,0 -2.985,-2.219 0,-2.234 2.235,-2.234 2.985,-2.234 l 1.234,0 0,-15.687 c 0,-6.25 2.235,-8.922 6.5,-8.922 0.563,0 3.297,0 6.516,1 1.047,0.312 4.64,1.422 4.64,2.593 z"
         style="fill:#000056;fill-opacity:1;fill-rule:nonzero;stroke:none"
         id="path16"
         inkscape:connector-curvature="0" /></g></g></svg>