<?xml version="1.0" encoding="UTF-8" standalone="no"?>
<!-- Created with Inkscape (http://www.inkscape.org/) -->

<svg
   xmlns:dc="http://purl.org/dc/elements/1.1/"
   xmlns:cc="http://creativecommons.org/ns#"
   xmlns:rdf="http://www.w3.org/1999/02/22-rdf-syntax-ns#"
   xmlns:svg="http://www.w3.org/2000/svg"
   xmlns="http://www.w3.org/2000/svg"
   xmlns:sodipodi="http://sodipodi.sourceforge.net/DTD/sodipodi-0.dtd"
   xmlns:inkscape="http://www.inkscape.org/namespaces/inkscape"
   id="svg2"
   version="1.1"
   inkscape:version="0.91 r13725"
   xml:space="preserve"
   width="152.59244"
   height="96.518799"
   viewBox="0 0 152.59244 96.518799"
   sodipodi:docname="melodient_logo_note.svg"><metadata
     id="metadata8"><rdf:RDF><cc:Work
         rdf:about=""><dc:format>image/svg+xml</dc:format><dc:type
           rdf:resource="http://purl.org/dc/dcmitype/StillImage" /><dc:title></dc:title></cc:Work></rdf:RDF></metadata><defs
     id="defs6" /><sodipodi:namedview
     pagecolor="#ffffff"
     bordercolor="#666666"
     borderopacity="1"
     objecttolerance="10"
     gridtolerance="10"
     guidetolerance="10"
     inkscape:pageopacity="0"
     inkscape:pageshadow="2"
     inkscape:window-width="1198"
     inkscape:window-height="704"
     id="namedview4"
     showgrid="false"
     inkscape:zoom="1.0360725"
     inkscape:cx="24.415271"
     inkscape:cy="-2.756352"
     inkscape:window-x="0"
     inkscape:window-y="0"
     inkscape:window-maximized="0"
     inkscape:current-layer="g10"
     fit-margin-top="0"
     fit-margin-left="0"
     fit-margin-right="0"
     fit-margin-bottom="0" /><g
     id="g10"
     inkscape:groupmode="layer"
     inkscape:label="melodient_logo_blue"
     transform="matrix(1.25,0,0,-1.25,0.00147013,227.78375)"><path
       inkscape:connector-curvature="0"
       id="path14"
       style="fill:#cccccc;fill-opacity:1;fill-rule:nonzero;stroke:none"
       d="m 56.98931,182.227 c -32.238224,0 -58.6501618,-17.9903 -56.90905533,-38.03824 2.61356653,-26.98609 32.78441233,-38.88697 65.29594333,-39.1768 32.221699,0 58.357362,17.99538 56.614142,37.74332 -2.32204,26.99626 -32.779331,39.18189 -65.00103,39.47172 z m -3.899587,-6.98985 c 11.497066,-0.13093 24.194135,-5.84324 34.873402,-19.64412 11.382658,-14.67504 9.702569,-33.79586 -4.303402,-40.46452 -14.289446,-6.50807 -33.822551,-3.71103 -49.477255,16.29538 -11.544948,14.90513 -9.747485,34.08696 4.26696,40.76071 4.426284,2.01441 9.414857,3.11187 14.640295,3.05255 z" /></g></svg>